<svg width="19" height="12" viewBox="0 0 19 12" fill="none" xmlns="http://www.w3.org/2000/svg">
<path d="M0.376 12H2.008V6.736H7.576V5.328H2.008V1.808H7.912V0.4H0.376V12ZM9.32913 12H13.9051C16.2251 12 18.0651 11.04 18.0651 8.576C18.0651 7.152 17.4091 6.288 16.3051 5.824C17.1211 5.36 17.5851 4.368 17.5851 3.264C17.5851 0.959999 15.6651 0.4 13.5051 0.4H9.32913V12ZM10.9611 6.656H13.8251C15.5691 6.656 16.3851 7.232 16.3851 8.592C16.3851 9.92 15.5851 10.624 13.9211 10.624H10.9611V6.656ZM10.9611 1.776H13.7611C15.0571 1.776 15.9371 2.288 15.9371 3.488C15.9371 4.848 15.1051 5.36 13.7611 5.36H10.9611V1.776Z" fill="#1F1F1F"/>
</svg>
