<svg width="135" height="30" viewBox="0 0 135 30" fill="none" xmlns="http://www.w3.org/2000/svg">
<path d="M0.24 20.36C0.32 27.16 4.48 29.32 8.44 29.32C12.84 29.32 16.76 27.24 16.76 20.64C16.76 16.76 14.88 13.64 9.64 12.52C7.88 12.12 5.32 11.72 5.28 8.72C5.28 6.32 6.68 4.96 8.64 4.96C10.48 4.96 12.08 6.48 12.08 9.72H16.36C16.36 2.84 12.4 0.68 8.64 0.68C4.8 0.68 0.84 2.68 0.84 9C0.84 14.64 4.96 16.08 7.52 16.68C10.64 17.4 12.32 18.2 12.32 21.04C12.32 23.56 10.96 25.04 8.44 25.04C6.4 25.04 4.56 23.68 4.56 20.36H0.24ZM32.0347 29H36.4747L30.3147 0.999998H24.6747L18.5147 29H22.9547L24.5547 22.04H30.4347L32.0347 29ZM25.0747 17.6L27.4747 6.12L29.8747 17.6H25.0747ZM55.8263 29L47.5063 14.8L55.1063 0.999998H50.0263L43.5063 12.44V0.999998H38.9063V29H43.5063V16.96L50.6263 29H55.8263ZM69.5844 0.999998V12.64H63.0244V0.999998H58.5844V29H63.0244V16.96H69.5844V29H74.0244V0.999998H69.5844ZM77.4469 29H81.5669V24.96H77.4469V29ZM99.0519 0.999998H84.5319V5.32H89.5719V29H94.0119V5.32H99.0519V0.999998ZM100.544 19.64C100.544 27.04 104.744 29.32 108.744 29.32C112.664 29.32 116.984 27.08 116.984 19.64V10.32C116.984 2.88 112.664 0.639998 108.744 0.639998C104.744 0.639998 100.544 2.92 100.544 10.32V19.64ZM112.424 19.36C112.424 23.52 110.784 25.04 108.744 25.04C106.624 25.04 105.104 23.52 105.104 19.36V10.64C105.104 6.48 106.624 4.96 108.744 4.96C110.784 4.96 112.424 6.48 112.424 10.64V19.36ZM119.68 1.04V29H124.12V17.88H126.64C130.64 17.72 134.88 15.72 134.88 10.32V8.6C134.88 2.8 130.24 1.04 126.04 1.04H119.68ZM130.56 9.72C130.56 12.68 128.6 13.6 126.72 13.6H124.12V5.32H126.72C128.6 5.32 130.56 6.2 130.56 9.2V9.72Z" fill="black"/>
</svg>
