<svg width="20" height="13" viewBox="0 0 20 13" fill="none" xmlns="http://www.w3.org/2000/svg">
<path d="M3.776 12H5.408V1.808H9.184V0.4H0V1.808H3.776V12ZM14.7861 0.191999C11.5221 0.191999 9.39413 2.592 9.39413 6.176C9.39413 9.696 11.3141 12.208 14.6421 12.208C16.1941 12.208 17.5541 11.744 18.3061 10.544L18.3861 12H19.6661V6.08H15.0581V7.488H18.1301V7.792C18.1301 10.192 16.2421 10.832 14.7061 10.832C12.5781 10.832 11.0581 9.12 11.0581 6.176C11.0581 3.168 12.6581 1.568 14.7061 1.568C16.5621 1.568 17.6181 2.48 18.0021 3.776H19.5861C19.1061 1.536 17.1861 0.191999 14.7861 0.191999Z" fill="#1F1F1F"/>
</svg>
